<svg xmlns="http://www.w3.org/2000/svg" width="48" height="48" viewBox="0 0 48 48" fill="none">
  <path d="M8 16.5C8 13.4624 10.4624 11 13.5 11H22.2L25.3 14.2H34.5C37.5376 14.2 40 16.6624 40 19.7V31.7C40 34.7376 37.5376 37.2 34.5 37.2H13.5C10.4624 37.2 8 34.7376 8 31.7V16.5Z" fill="#F2C94C"/>
  <path d="M8 18.7C8 16.1103 10.0983 14.012 12.688 14.012H34.312C36.9017 14.012 39 16.1103 39 18.7V21H8V18.7Z" fill="#FFD86A"/>
  <path d="M10.5 23.2C10.5 22.0954 11.3954 21.2 12.5 21.2H35.5C36.6046 21.2 37.5 22.0954 37.5 23.2V31.2C37.5 32.3046 36.6046 33.2 35.5 33.2H12.5C11.3954 33.2 10.5 32.3046 10.5 31.2V23.2Z" fill="#FFF7D6"/>
  <rect x="12.8" y="24.7" width="9.8" height="5.2" rx="1.6" fill="#5B8DEE"/>
  <rect x="24.5" y="24.7" width="10.7" height="2.3" rx="1.15" fill="#7AA6F4"/>
  <rect x="24.5" y="28.4" width="7.6" height="2.3" rx="1.15" fill="#88B7FB"/>
</svg>