<svg xmlns="http://www.w3.org/2000/svg" width="18" height="18" viewBox="0 0 18 18" fill="none">
  <path d="M5.25 2.25H9.9L13.5 5.85V14.25C13.5 15.078 12.828 15.75 12 15.75H5.25C4.422 15.75 3.75 15.078 3.75 14.25V3.75C3.75 2.922 4.422 2.25 5.25 2.25Z" fill="#FFFFFF" stroke="#B6C2CF" stroke-width="0.9"/>
  <rect x="7.55" y="6.45" width="2.9" height="6.75" rx="0.65" fill="#D7A65A"/>
  <rect x="7.2" y="8.15" width="3.6" height="0.9" rx="0.45" fill="#8B5E25"/>
  <rect x="7.2" y="10.15" width="3.6" height="0.9" rx="0.45" fill="#8B5E25"/>
  <path d="M9.9 2.25V4.8C9.9 5.379 10.371 5.85 10.95 5.85H13.5" fill="#FBF5EB"/>
  <path d="M9.9 2.25V4.8C9.9 5.379 10.371 5.85 10.95 5.85H13.5" stroke="#B6C2CF" stroke-width="0.9"/>
</svg>
