<svg xmlns="http://www.w3.org/2000/svg" width="18" height="18" viewBox="0 0 18 18" fill="none">
  <path d="M5.25 2.25H9.9L13.5 5.85V14.25C13.5 15.078 12.828 15.75 12 15.75H5.25C4.422 15.75 3.75 15.078 3.75 14.25V3.75C3.75 2.922 4.422 2.25 5.25 2.25Z" fill="#FFFFFF" stroke="#B6C2CF" stroke-width="0.9"/>
  <path d="M3.75 5.25H8.55V15.75H5.25C4.422 15.75 3.75 15.078 3.75 14.25V5.25Z" fill="#1F8B4D"/>
  <path d="M9.9 2.25V4.8C9.9 5.379 10.371 5.85 10.95 5.85H13.5" fill="#EAF7F0"/>
  <path d="M9.9 2.25V4.8C9.9 5.379 10.371 5.85 10.95 5.85H13.5" stroke="#B6C2CF" stroke-width="0.9"/>
  <path d="M5.15 8.05L7.15 10.95M7.15 8.05L5.15 10.95" stroke="#FFFFFF" stroke-width="1.2" stroke-linecap="round"/>
</svg>
