<svg xmlns="http://www.w3.org/2000/svg" width="18" height="18" viewBox="0 0 18 18" fill="none">
  <path d="M2.25 5.25C2.25 4.422 2.922 3.75 3.75 3.75H7.05L8.1 5.1H14.25C15.078 5.1 15.75 5.772 15.75 6.6V12.75C15.75 13.578 15.078 14.25 14.25 14.25H3.75C2.922 14.25 2.25 13.578 2.25 12.75V5.25Z" fill="#F6C64C"/>
  <path d="M2.55 6.3H15.45V12.75C15.45 13.412 14.912 13.95 14.25 13.95H3.75C3.088 13.95 2.55 13.412 2.55 12.75V6.3Z" fill="#F2B93C"/>
  <path d="M2.25 5.25C2.25 4.422 2.922 3.75 3.75 3.75H7.05L8.1 5.1H14.25C15.078 5.1 15.75 5.772 15.75 6.6" stroke="#D89A16" stroke-width="0.9" stroke-linejoin="round"/>
</svg>
