<svg xmlns="http://www.w3.org/2000/svg" width="18" height="18" viewBox="0 0 18 18" fill="none">
  <path d="M5.25 2.25H9.9L13.5 5.85V14.25C13.5 15.078 12.828 15.75 12 15.75H5.25C4.422 15.75 3.75 15.078 3.75 14.25V3.75C3.75 2.922 4.422 2.25 5.25 2.25Z" fill="#FFFFFF" stroke="#B6C2CF" stroke-width="0.9"/>
  <circle cx="6.45" cy="8.1" r="1.05" fill="#F59E0B"/>
  <path d="M5.1 12.6L7.15 10.2C7.45 9.85 7.97 9.84 8.29 10.17L9.35 11.28L10.6 9.85C10.93 9.47 11.53 9.5 11.82 9.91L12.6 11.1V13.2H5.1V12.6Z" fill="#60A5FA"/>
  <path d="M9.9 2.25V4.8C9.9 5.379 10.371 5.85 10.95 5.85H13.5" fill="#EEF6FF"/>
  <path d="M9.9 2.25V4.8C9.9 5.379 10.371 5.85 10.95 5.85H13.5" stroke="#B6C2CF" stroke-width="0.9"/>
</svg>
