<svg xmlns="http://www.w3.org/2000/svg" width="18" height="18" viewBox="0 0 18 18" fill="none">
  <path d="M5.25 2.25H9.9L13.5 5.85V14.25C13.5 15.078 12.828 15.75 12 15.75H5.25C4.422 15.75 3.75 15.078 3.75 14.25V3.75C3.75 2.922 4.422 2.25 5.25 2.25Z" fill="#FFFFFF" stroke="#B6C2CF" stroke-width="0.9"/>
  <path d="M9.9 2.25V4.8C9.9 5.379 10.371 5.85 10.95 5.85H13.5" fill="#F8F0FF"/>
  <path d="M9.9 2.25V4.8C9.9 5.379 10.371 5.85 10.95 5.85H13.5" stroke="#B6C2CF" stroke-width="0.9"/>
  <path d="M7.2 7.3C6.8 7.5 6.6 7.8 6.6 8.25V9.15C6.6 9.6 6.4 9.9 6 10.1C6.4 10.3 6.6 10.6 6.6 11.05V11.95C6.6 12.4 6.8 12.7 7.2 12.9" stroke="#7C3AED" stroke-width="1" stroke-linecap="round"/>
  <path d="M10.8 7.3C11.2 7.5 11.4 7.8 11.4 8.25V9.15C11.4 9.6 11.6 9.9 12 10.1C11.6 10.3 11.4 10.6 11.4 11.05V11.95C11.4 12.4 11.2 12.7 10.8 12.9" stroke="#7C3AED" stroke-width="1" stroke-linecap="round"/>
</svg>
