<svg xmlns="http://www.w3.org/2000/svg" width="18" height="18" viewBox="0 0 18 18" fill="none">
  <path d="M5.25 2.25H9.9L13.5 5.85V14.25C13.5 15.078 12.828 15.75 12 15.75H5.25C4.422 15.75 3.75 15.078 3.75 14.25V3.75C3.75 2.922 4.422 2.25 5.25 2.25Z" fill="#FFFFFF" stroke="#B6C2CF" stroke-width="0.9"/>
  <path d="M3.75 10.95H13.5V14.25C13.5 15.078 12.828 15.75 12 15.75H5.25C4.422 15.75 3.75 15.078 3.75 14.25V10.95Z" fill="#D14343"/>
  <path d="M5.2 13.15V11.55H5.95C6.35 11.55 6.6 11.78 6.6 12.12C6.6 12.47 6.35 12.7 5.95 12.7H5.55" stroke="#FFFFFF" stroke-width="0.7" stroke-linecap="round" stroke-linejoin="round"/>
  <path d="M7.35 13.15V11.55H7.9C8.4 11.55 8.7 11.85 8.7 12.35C8.7 12.85 8.4 13.15 7.9 13.15H7.35Z" stroke="#FFFFFF" stroke-width="0.7" stroke-linecap="round" stroke-linejoin="round"/>
  <path d="M9.4 13.15V11.55H10.55" stroke="#FFFFFF" stroke-width="0.7" stroke-linecap="round"/>
  <path d="M9.4 12.35H10.15" stroke="#FFFFFF" stroke-width="0.7" stroke-linecap="round"/>
  <path d="M9.9 2.25V4.8C9.9 5.379 10.371 5.85 10.95 5.85H13.5" fill="#FFF0F0"/>
  <path d="M9.9 2.25V4.8C9.9 5.379 10.371 5.85 10.95 5.85H13.5" stroke="#B6C2CF" stroke-width="0.9"/>
</svg>
